# xmcd
#
# Track frame offsets:
#	150
#	7186
#	25005
#	40051
#	64296
#	88470
#
# Disc length: 1505 seconds
#
# Revision: 11
# Processed by: cddbd v1.5.2PL0 Copyright (c) Steve Scherf et al.
# Submitted via: Jack! The Knife 20 Magnifico
#
DISCID=4b05df06
DTITLE=Marlene Kuntz - Fingendo La Poesia
DYEAR=2004
DGENRE=Rock
TTITLE0=Prima
TTITLE1=Fingendo La Poesia
TTITLE2=Non Gioco Più
TTITLE3=Alle Prese Con Una Verde Milonga
TTITLE4=Il Vortice
TTITLE5=Poi
EXTD=
EXTT0=
EXTT1=Cristiano Godano
EXTT2=G. Ferrio
EXTT3=Paolo Conte
EXTT4=Cristiano Godano
EXTT5=
PLAYORDER=
